<svg xmlns="http://www.w3.org/2000/svg" xmlns:xlink="http://www.w3.org/1999/xlink" viewBox="2266 254 700 320">
  <defs>
    <style>
      .cls-1 {
        clip-path: url(#clip-penguin-bg);
      }

      .cls-2 {
        opacity: 0.475;
        fill: url(#linear-gradient);
      }

      .cls-16, .cls-3, .cls-5, .cls-6 {
        fill: #fde000;
      }

      .cls-16, .cls-3 {
        font-size: 4px;
        font-weight: 700;
      }

      .cls-3 {
        font-family: Helvetica-Bold, Helvetica;
      }

      .cls-4 {
        fill: #ffeb00;
        font-size: 22px;
        font-family: Helvetica;
      }

      .cls-6 {
        font-size: 1px;
        font-family: HelveticaNeue, Helvetica Neue;
      }

      .cls-10, .cls-7 {
        fill: #dd8781;
      }

      .cls-7 {
        stroke: #dd8781;
        stroke-width: 1px;
      }

      .cls-8 {
        fill: #faf7f7;
      }

      .cls-9 {
        fill: #191919;
      }

      .cls-11 {
        fill: #b95630;
      }

      .cls-12 {
        fill: #eac574;
      }

      .cls-13 {
        fill: #da7a36;
      }

      .cls-14 {
        fill: #915400;
      }

      .cls-15 {
        fill: none;
      }

      .cls-16 {
        font-family: HelveticaNeue-Bold, Helvetica Neue;
      }

      .cls-17 {
        fill: #fff;
      }
    </style>
    <linearGradient id="linear-gradient" x1="0.018" y1="0.211" x2="0.958" y2="0.66" gradientUnits="objectBoundingBox">
      <stop offset="0" stop-color="#918318"/>
      <stop offset="1" stop-color="#183ebc"/>
    </linearGradient>
    <clipPath id="clip-penguin-bg">
      <rect x="2266" y="254" width="700" height="320"/>
    </clipPath>
  </defs>
  <g id="penguin-bg" class="cls-1">
    <rect class="cls-17" x="2266" y="254" width="700" height="320"/>
    <g id="group-10" transform="translate(2266 254)">
      <path id="rectangle-26" class="cls-2" d="M.5.5H702.843V321.925H.5Z" transform="translate(-0.5 -0.5)"/>
      <g id="group-32" transform="translate(270.601 86.803)">
        <text id="Yellow-Eye-Peng" class="cls-3" transform="translate(0 4)"><tspan x="0" y="0">Yellow-Eyed </tspan><tspan x="0" y="5"></tspan></text>
        <text id="They_living_in_" data-name="They living in " class="cls-4" transform="translate(31.837 103.359)"><tspan x="0" y="21">Yellow-eyed </tspan><tspan x="0" y="47">penguins are one </tspan></text>
        <g id="group-44" transform="translate(83.436 177.456)">
          <path id="rectangle-6" class="cls-5" d="M.5.5h9.738L5.251,5.185Z" transform="translate(27.22 1.624)"/>
          <text id="Scroll_Down" data-name="Scroll Down" class="cls-6" transform="translate(0 1)"><tspan x="0" y="0">Scroll </tspan></text>
        </g>
      </g>
      <g id="group-80" transform="translate(603.781 162.355)">
        <path id="path-149" class="cls-7" d="M-1509.467,1461.016a16.667,16.667,0,0,0-2.17-5.622c-.241-.965,1.347-5,3.633-.677a14.94,14.94,0,0,0,.494,3.005,18.2,18.2,0,0,0,1.307,2.961A1.98,1.98,0,0,1-1509.467,1461.016Z" transform="translate(1522.894 -1450.961)"/>
        <path id="path-148" class="cls-8" d="M-1492.157,1494.066s-8.348.56-15.677-16.53a45.365,45.365,0,0,1-1.267-14.858c.219-1.841,4.993-.965,4.993-.965l10.231,25.346Z" transform="translate(1522.506 -1452.605)"/>
        <path id="path-146" class="cls-9" d="M-1462.293,1497.34s-.414-.341,6.328-5.316c2.936-1.912,4.118-7.193,5.028-9.634.058-.025.826-4.382-3.413.144-.018-.143-2.73,3.459-2.73,3.459a30.6,30.6,0,0,1-3.393,2.887c-.536.366-3.237,2.158-3.768,3.144C-1464.087,1491.361-1462.293,1497.34-1462.293,1497.34Z" transform="translate(1501.735 -1466.16)"/>
        <path id="path-145" class="cls-9" d="M-1480.135,1490.177c-.564-2.392-.8-.8-.952-3.644a64.22,64.22,0,0,0-2.2-11.636c.328.135-6.132-11.108-11.055-16.692-1.473-1.358-1.554-1.26-3.049-2.6-1.358-1.625-2.686-4.138-4.5-4.386-.046-.025-2.667,1.045-1.57,5.173-.467,2.042-.161,1.084-1.8,5.667a10.024,10.024,0,0,0-1.905,4.709c-.133.184.761,7.583,3.7,12.146.013-.018,2.1,6.912,6.83,9.474,2.224,1.626,2.244,1.285,5.763,3.615l1.765,1.971,2.2,1.565,4.2,2.408s1.151,2.788,1.613-3.351A6.917,6.917,0,0,0-1480.135,1490.177Z" transform="translate(1521.094 -1451.215)"/>
        <path id="path-147" class="cls-9" d="M-1512.962,1514.616s-1.292-.577-6.691,0c-.178,0-6.715.373-10.3,2.213s-5.436,2.718-.6,2.936c2.084-.148,12.8-.746,12.8-.746s6.572.042,8.685,1.814C-1509.119,1520.907-1512.962,1514.616-1512.962,1514.616Z" transform="translate(1533.477 -1483.663)"/>
        <g id="group-75" transform="translate(36.195 42.609) rotate(11)">
          <path id="path-98" class="cls-10" d="M6.43.837A14.48,14.48,0,0,0,2.784.318C2.634.319.754-.475,0,.443A2.038,2.038,0,0,0,1.7,1.687c.814.114,1.773-.3,3.561-.4Z" transform="matrix(0.643, 0.766, -0.766, 0.643, 1.307, 0.191)"/>
          <path id="path-97" class="cls-11" d="M0,.675c.064.2-.1.147.6.615.444.3.741.339,1.906.191-.049.031.716-.171,1.991-.328a8.233,8.233,0,0,0,1.968.017C6.7.931,5.71.083,2.431.019.889-.017.837-.082,0,.675Z" transform="matrix(0.643, 0.766, -0.766, 0.643, 1.532, 0)"/>
        </g>
        <path id="ellipse-21" class="cls-12" d="M.779,0a1.222,1.222,0,0,1,.944,1.193c.047.625-.3,1.1-.775,1.069A1.222,1.222,0,0,1,0,1.071C-.042.446.3-.032.779,0Z" transform="matrix(0.788, -0.616, 0.616, 0.788, 33.055, 41.425)"/>
        <path id="path-136" class="cls-12" d="M7.852,7.522c.744-1.168,3.173-.952,2.7-4.044C9.339,1.174,7.74,3.54,8.1,5.158,5.839,8.856,4.042,8.49,2.818,7.849A4.332,4.332,0,0,1,1.1,5.148a4.337,4.337,0,0,1,1.306-3.4C3.308.772,3.836-.145,3.845.019,3.152.7.734,1.773,0,4.937c.044.542,1.716,6.642,6.579,3.945C7.089,8.55,7.068,8.692,7.852,7.522Z" transform="matrix(-0.454, 0.891, -0.891, -0.454, 42.701, 35.377)"/>
        <path id="ellipse-18" class="cls-13" d="M.813,1.692A1.264,1.264,0,0,0,1.843.709c.062-.464-.3-.776-.806-.7A1.264,1.264,0,0,0,.007,1C-.055,1.46.306,1.771.813,1.692Z" transform="matrix(0.326, 0.946, -0.946, 0.326, 35.233, 40.7)"/>
        <path id="ellipse-18-2" data-name="ellipse-18" class="cls-14" d="M.444.924A.69.69,0,0,0,1.006.387C1.04.134.843-.037.566.007A.69.69,0,0,0,0,.543C-.03.8.167.967.444.924Z" transform="matrix(0.326, 0.946, -0.946, 0.326, 34.993, 41.206)"/>
      </g>
      <g id="group-71" transform="matrix(-0.588, 0.809, -0.809, -0.588, 659.556, 84.933)">
        <path id="path-132" class="cls-8" d="M57.506,27.829S48.753,16.67,45.694,14c-.174.081-2.98-5.386-14.61-10A63.319,63.319,0,0,0,3.447.287,16.069,16.069,0,0,0,0,.96c.006.189,45.927,24.15,45.927,24.15l3.994,3.208Z" transform="translate(5.825 6.874)"/>
        <path id="path-131" class="cls-9" d="M68.1,36.371s-6.053,4.539-14.906-2.693a8.74,8.74,0,0,1-.872-.834c-.522-.823-1.732-2.6-5.76-4.166.354-.068-3.212-.923-7.045-1.934.277.114-9.58-3.524-15.58-8.477-.007-.094-18.052-14.3-20.3-15.688A34.725,34.725,0,0,0,.386.59L.2.5C-.687.066,1.628.055,2.584,0c4.4.222,11.289.966,15.264,3.623.077-.182,9.049,6.19,14.916,7.175-.036-.52,9.534,4.127,15.046,7.31,1.449.837,3.089,3.036,3.723,3.473,3.819,4.229,4.981,4.574,6.469,5.31a13.686,13.686,0,0,0,4.768-.174c1.535,1.409,3.417,3.5,5.688,5.871A26.656,26.656,0,0,1,68.1,36.371Z" transform="translate(0 7.155)"/>
        <path id="path-136-2" data-name="path-136" class="cls-12" d="M5.434,2.776c.344-.248-.9-2.733-1.3-2.776C-.51,2.461-.01,2.449.039,3.423A10.622,10.622,0,0,0,4.448,5.789C4.456,5.925,2.37,5.3,5.434,2.776Z" transform="translate(55.963 39.609) rotate(-8)"/>
        <path id="path-98-2" data-name="path-98" class="cls-10" d="M11.57,3.363S6.534.484,3.537.124C3.277.09,1.1-.426,0,.934.089.94,2.823,2.63,10.234,3.265,10.236,3.264,11.57,3.363,11.57,3.363Z" transform="translate(64.622 39.374)"/>
        <path id="path-97-2" data-name="path-97" class="cls-11" d="M.058.009c-.308-.214.5,3.476,5.168,3.54a22.488,22.488,0,0,0,5.393-.487,1.513,1.513,0,0,0,.467-.32,1.7,1.7,0,0,0,.367-.409c.354-.346-.285.167-5.981-.72A24.892,24.892,0,0,1,.058.009Z" transform="translate(64.643 40.263)"/>
        <path id="path-133" class="cls-9" d="M15.684,19.918a9.434,9.434,0,0,0,7.032.516s-4.617-7.2-7.2-10.273c-1.538-2-6.3-5.762-11.555-8.968.354-.068-6.874-3.325-2.607,1.219a56.007,56.007,0,0,1,7.393,8.559c1.494,2.485,1.781,1.986,2.6,4.773C11.691,15.488,12.755,17.823,15.684,19.918Z" transform="translate(23.871 5.718)"/>
        <path id="ellipse-21-2" data-name="ellipse-21" class="cls-12" d="M2.106.007A2.578,2.578,0,0,1,4.5,2.241a1.825,1.825,0,0,1-2.1,1.9A2.578,2.578,0,0,1,0,1.912,1.825,1.825,0,0,1,2.106.007Z" transform="translate(59.245 37.093)"/>
        <path id="ellipse-18-3" data-name="ellipse-18" class="cls-13" d="M1.607,2.663A1.254,1.254,0,0,0,3.061,1.425,1.661,1.661,0,0,0,1.456,0,1.254,1.254,0,0,0,0,1.241,1.661,1.661,0,0,0,1.607,2.663Z" transform="translate(60.62 37.89) rotate(6)"/>
        <path id="ellipse-18-4" data-name="ellipse-18" class="cls-14" d="M.877,1.454A.684.684,0,0,0,1.671.778.907.907,0,0,0,.795,0,.684.684,0,0,0,0,.678.907.907,0,0,0,.877,1.454Z" transform="translate(61.217 38.563) rotate(6)"/>
        <path id="path-135" class="cls-10" d="M13.238,6.809,7.43,2.04S3.174-.9.026.279c-.194-.2.707.817,1.756,2.009A8.2,8.2,0,0,0,4.861,4.395c.994.086,2.51.656,4.176,2.659C9.225,7.162,13.238,6.809,13.238,6.809Z" transform="translate(3.021 0)"/>
        <path id="path-132-2" data-name="path-132" class="cls-8" d="M57.506,27.829S48.753,16.67,45.694,14c-.174.081-2.98-5.386-14.61-10A63.319,63.319,0,0,0,3.447.287,16.069,16.069,0,0,0,0,.96c.006.189,45.927,24.15,45.927,24.15l3.994,3.208Z" transform="translate(5.825 6.874)"/>
        <path id="path-131-2" data-name="path-131" class="cls-9" d="M68.1,36.371s-6.053,4.539-14.906-2.693a8.74,8.74,0,0,1-.872-.834c-.522-.823-1.732-2.6-5.76-4.166.354-.068-3.212-.923-7.045-1.934.277.114-9.58-3.524-15.58-8.477-.007-.094-18.052-14.3-20.3-15.688A34.725,34.725,0,0,0,.386.59L.2.5C-.687.066,1.628.055,2.584,0c4.4.222,11.289.966,15.264,3.623.077-.182,9.049,6.19,14.916,7.175-.036-.52,9.534,4.127,15.046,7.31,1.449.837,3.089,3.036,3.723,3.473,3.819,4.229,4.981,4.574,6.469,5.31a13.686,13.686,0,0,0,4.768-.174c1.535,1.409,3.417,3.5,5.688,5.871A26.656,26.656,0,0,1,68.1,36.371Z" transform="translate(0 7.155)"/>
        <path id="path-136-3" data-name="path-136" class="cls-12" d="M5.434,2.776c.344-.248-.9-2.733-1.3-2.776C-.51,2.461-.01,2.449.039,3.423A10.622,10.622,0,0,0,4.448,5.789C4.456,5.925,2.37,5.3,5.434,2.776Z" transform="translate(55.963 39.609) rotate(-8)"/>
        <path id="path-98-3" data-name="path-98" class="cls-10" d="M11.57,3.363S6.534.484,3.537.124C3.277.09,1.1-.426,0,.934.089.94,2.823,2.63,10.234,3.265,10.236,3.264,11.57,3.363,11.57,3.363Z" transform="translate(64.622 39.374)"/>
        <path id="path-97-3" data-name="path-97" class="cls-11" d="M.058.009c-.308-.214.5,3.476,5.168,3.54a22.488,22.488,0,0,0,5.393-.487,1.513,1.513,0,0,0,.467-.32,1.7,1.7,0,0,0,.367-.409c.354-.346-.285.167-5.981-.72A24.892,24.892,0,0,1,.058.009Z" transform="translate(64.643 40.263)"/>
        <path id="path-133-2" data-name="path-133" class="cls-9" d="M15.684,19.918a9.434,9.434,0,0,0,7.032.516s-4.617-7.2-7.2-10.273c-1.538-2-6.3-5.762-11.555-8.968.354-.068-6.874-3.325-2.607,1.219a56.007,56.007,0,0,1,7.393,8.559c1.494,2.485,1.781,1.986,2.6,4.773C11.691,15.488,12.755,17.823,15.684,19.918Z" transform="translate(23.871 5.718)"/>
        <path id="ellipse-21-3" data-name="ellipse-21" class="cls-12" d="M2.106.007A2.578,2.578,0,0,1,4.5,2.241a1.825,1.825,0,0,1-2.1,1.9A2.578,2.578,0,0,1,0,1.912,1.825,1.825,0,0,1,2.106.007Z" transform="translate(59.245 37.093)"/>
        <path id="ellipse-18-5" data-name="ellipse-18" class="cls-13" d="M1.607,2.663A1.254,1.254,0,0,0,3.061,1.425,1.661,1.661,0,0,0,1.456,0,1.254,1.254,0,0,0,0,1.241,1.661,1.661,0,0,0,1.607,2.663Z" transform="translate(60.62 37.89) rotate(6)"/>
        <path id="ellipse-18-6" data-name="ellipse-18" class="cls-14" d="M.877,1.454A.684.684,0,0,0,1.671.778.907.907,0,0,0,.795,0,.684.684,0,0,0,0,.678.907.907,0,0,0,.877,1.454Z" transform="translate(61.217 38.563) rotate(6)"/>
        <path id="path-135-2" data-name="path-135" class="cls-10" d="M13.238,6.809,7.43,2.04S3.174-.9.026.279c-.194-.2.707.817,1.756,2.009A8.2,8.2,0,0,0,4.861,4.395c.994.086,2.51.656,4.176,2.659C9.225,7.162,13.238,6.809,13.238,6.809Z" transform="translate(3.021 0)"/>
      </g>
      <g id="group-77" transform="translate(492.407 212.004)">
        <path id="path-141" class="cls-8" d="M-1585.829,1220.921c.33-.283,3.607-4.781,3.826-.722.659,0-2.842,8.366-8,20.357-.22.944-7.256,9.537-15.053,9.914-.439.283-4.612.378-8.675-1.228.109.189-2.966-.759-5.382,0s10.982-6.511,10.982-6.511l18.779-16.807Z" transform="translate(1628.194 -1211.013)"/>
        <path id="path-137" class="cls-9" d="M-1620.424,1219.6s-1.99-6.024,16.382-16.529c.115.094,2.6-1.775,7.794-5.49.706-.276,11.081-12.634,5.59.49-.22.189,2.635,7.081-4.613,19.64-.33.189-1.647,5.1-10.213,9.064a11.211,11.211,0,0,1-3.842.192c-1.55.029-3.773-.488-5.86,4.044-3.511-.168-2.473.107-9.353,1.37-.539-.005.234-1.834-.611-1.833-1.208.567-.659-3.772-.659-3.772s1.219-5.092,5.384-6.418C-1620.652,1220.445-1620.424,1219.6-1620.424,1219.6Z" transform="translate(1632.569 -1192.041)"/>
        <path id="path-138" class="cls-9" d="M-1550.54,1283.022c2.154,3.172,1.746,3.3,5.454,5.67,4.224,1.339,5.771.6,9.026.468.707.016,3.595-.294,1.032,1.794-.487.21-6.222,3.677-11.6,3.11-2.031-.377-3.25-.992-5.542-3.229a16.38,16.38,0,0,1-1.866-2.658c-.665-1.2-.334-2.157-3.848-.93.219-.283,2.957-4.438,2.957-4.438S-1552.694,1279.85-1550.54,1283.022Z" transform="translate(1586.942 -1256.199)"/>
        <path id="path-139" class="cls-9" d="M-1631.938,1260.74l-1.3-.941s-.459-.8-4.843-1.089a16.163,16.163,0,0,1-2.5-.229s-2.146-.184-2.021-1.478c.034.018-.825-1.942-2.719.256a3.347,3.347,0,0,0-.708,2.721c.425.9,1,1.813,3.427,2.877,3.9.874,4.822-.2,6.8.85,1.895,1.137,1.973,1.983,1.973,1.983Z" transform="translate(1646.076 -1238.037)"/>
        <path id="path-140" class="cls-15" d="M-1613.277,1288.175s3.624-.378,1.318,3.494c.11-.283-1.538,1.133-2.745,1.888l-1.213,2.081s.339,1.511,2.64.472c0-.378,2.077-1.7,2.077-1.7a3.869,3.869,0,0,1,.769-2.742c-.1.1-.651-1.137.667-2.931a2.056,2.056,0,0,0-2.195-1.133C-1612.062,1287.6-1613.277,1288.175-1613.277,1288.175Z" transform="translate(1625.853 -1260.523)"/>
        <path id="path-142" class="cls-10" d="M-1511.6,1209.034s1.757-1.983,3.624-4.06c.22.189,1.647-3.777-2.746-1.322-.361.381-.654.189-1.532,2.455-.11.189-1.757,1.228-2.416,1.983S-1511.6,1209.034-1511.6,1209.034Z" transform="translate(1558.013 -1199.503)"/>
        <path id="path-98-4" data-name="path-98" class="cls-10" d="M11.157,3.233S6.3.468,3.41.12C3.159.087,1.062-.41,0,.893.086.9,2.723,2.522,9.869,3.138,9.871,3.136,11.157,3.233,11.157,3.233Z" transform="matrix(-0.602, 0.799, -0.799, -0.602, 11.012, 37.925)"/>
        <path id="path-97-4" data-name="path-97" class="cls-11" d="M.084.054c-.171-.118-.2,1.209,1.076,2.123.805.579,2.534.794,4.448.822a11.694,11.694,0,0,0,4.66-.008,1.457,1.457,0,0,0,.45-.306,1.632,1.632,0,0,0,.354-.392c.341-.331-1.2-.866-6.7-1.722C1.794.159,2.538-.124.084.054Z" transform="matrix(-0.602, 0.799, -0.799, -0.602, 10.374, 37.434)"/>
        <path id="path-136-4" data-name="path-136" class="cls-12" d="M4.226,1.769C4.511,1.57,3.119.036,2.781,0-1.076,1.975.19,3.573.231,4.362a8.2,8.2,0,0,0,3.985,1.7A2.754,2.754,0,0,1,4.226,1.769Z" transform="matrix(-0.454, 0.891, -0.891, -0.454, 15.722, 30.135)"/>
        <path id="ellipse-21-4" data-name="ellipse-21" class="cls-12" d="M1.712.005A2.056,2.056,0,0,1,3.645,1.758,1.462,1.462,0,0,1,1.936,3.245,2.056,2.056,0,0,1,0,1.493,1.462,1.462,0,0,1,1.712.005Z" transform="matrix(0.574, -0.819, 0.819, 0.574, 10.624, 34.644)"/>
        <path id="ellipse-18-7" data-name="ellipse-18" class="cls-13" d="M1.329,2.158a1.041,1.041,0,0,0,1.214-1A1.356,1.356,0,0,0,1.215,0,1.041,1.041,0,0,0,0,1.007,1.356,1.356,0,0,0,1.329,2.158Z" transform="translate(15.052 33.956) rotate(131)"/>
        <path id="ellipse-18-8" data-name="ellipse-18" class="cls-14" d="M.725,1.178A.568.568,0,0,0,1.388.629.74.74,0,0,0,.663,0,.568.568,0,0,0,0,.55.74.74,0,0,0,.725,1.178Z" transform="translate(14.319 34.049) rotate(131)"/>
        <path id="path-141-2" data-name="path-141" class="cls-8" d="M-1585.829,1220.921c.33-.283,3.607-4.781,3.826-.722.659,0-2.842,8.366-8,20.357-.22.944-7.256,9.537-15.053,9.914-.439.283-4.612.378-8.675-1.228.109.189-2.966-.759-5.382,0s10.982-6.511,10.982-6.511l18.779-16.807Z" transform="translate(1628.194 -1211.013)"/>
        <path id="path-137-2" data-name="path-137" class="cls-9" d="M-1620.424,1219.6s-1.99-6.024,16.382-16.529c.115.094,2.6-1.775,7.794-5.49.706-.276,11.081-12.634,5.59.49-.22.189,2.635,7.081-4.613,19.64-.33.189-1.647,5.1-10.213,9.064a11.211,11.211,0,0,1-3.842.192c-1.55.029-3.773-.488-5.86,4.044-3.511-.168-2.473.107-9.353,1.37-.539-.005.234-1.834-.611-1.833-1.208.567-.659-3.772-.659-3.772s1.219-5.092,5.384-6.418C-1620.652,1220.445-1620.424,1219.6-1620.424,1219.6Z" transform="translate(1632.569 -1192.041)"/>
        <path id="path-138-2" data-name="path-138" class="cls-9" d="M-1550.54,1283.022c2.154,3.172,1.746,3.3,5.454,5.67,4.224,1.339,5.771.6,9.026.468.707.016,3.595-.294,1.032,1.794-.487.21-6.222,3.677-11.6,3.11-2.031-.377-3.25-.992-5.542-3.229a16.38,16.38,0,0,1-1.866-2.658c-.665-1.2-.334-2.157-3.848-.93.219-.283,2.957-4.438,2.957-4.438S-1552.694,1279.85-1550.54,1283.022Z" transform="translate(1586.942 -1256.199)"/>
        <path id="path-139-2" data-name="path-139" class="cls-9" d="M-1631.938,1260.74l-1.3-.941s-.459-.8-4.843-1.089a16.163,16.163,0,0,1-2.5-.229s-2.146-.184-2.021-1.478c.034.018-.825-1.942-2.719.256a3.347,3.347,0,0,0-.708,2.721c.425.9,1,1.813,3.427,2.877,3.9.874,4.822-.2,6.8.85,1.895,1.137,1.973,1.983,1.973,1.983Z" transform="translate(1646.076 -1238.037)"/>
        <path id="path-140-2" data-name="path-140" class="cls-15" d="M-1613.277,1288.175s3.624-.378,1.318,3.494c.11-.283-1.538,1.133-2.745,1.888l-1.213,2.081s.339,1.511,2.64.472c0-.378,2.077-1.7,2.077-1.7a3.869,3.869,0,0,1,.769-2.742c-.1.1-.651-1.137.667-2.931a2.056,2.056,0,0,0-2.195-1.133C-1612.062,1287.6-1613.277,1288.175-1613.277,1288.175Z" transform="translate(1625.853 -1260.523)"/>
        <path id="path-98-5" data-name="path-98" class="cls-10" d="M11.157,3.233S6.3.468,3.41.12C3.159.087,1.062-.41,0,.893.086.9,2.723,2.522,9.869,3.138,9.871,3.136,11.157,3.233,11.157,3.233Z" transform="matrix(-0.602, 0.799, -0.799, -0.602, 11.012, 37.925)"/>
        <path id="path-97-5" data-name="path-97" class="cls-11" d="M.084.054c-.171-.118-.2,1.209,1.076,2.123.805.579,2.534.794,4.448.822a11.694,11.694,0,0,0,4.66-.008,1.457,1.457,0,0,0,.45-.306,1.632,1.632,0,0,0,.354-.392c.341-.331-1.2-.866-6.7-1.722C1.794.159,2.538-.124.084.054Z" transform="matrix(-0.602, 0.799, -0.799, -0.602, 10.374, 37.434)"/>
        <path id="path-136-5" data-name="path-136" class="cls-12" d="M4.226,1.769C4.511,1.57,3.119.036,2.781,0-1.076,1.975.19,3.573.231,4.362a8.2,8.2,0,0,0,3.985,1.7A2.754,2.754,0,0,1,4.226,1.769Z" transform="matrix(-0.454, 0.891, -0.891, -0.454, 15.722, 30.135)"/>
        <path id="ellipse-21-5" data-name="ellipse-21" class="cls-12" d="M1.712.005A2.056,2.056,0,0,1,3.645,1.758,1.462,1.462,0,0,1,1.936,3.245,2.056,2.056,0,0,1,0,1.493,1.462,1.462,0,0,1,1.712.005Z" transform="matrix(0.574, -0.819, 0.819, 0.574, 10.624, 34.644)"/>
        <path id="ellipse-18-9" data-name="ellipse-18" class="cls-13" d="M1.329,2.158a1.041,1.041,0,0,0,1.214-1A1.356,1.356,0,0,0,1.215,0,1.041,1.041,0,0,0,0,1.007,1.356,1.356,0,0,0,1.329,2.158Z" transform="translate(15.052 33.956) rotate(131)"/>
        <path id="ellipse-18-10" data-name="ellipse-18" class="cls-14" d="M.725,1.178A.568.568,0,0,0,1.388.629.74.74,0,0,0,.663,0,.568.568,0,0,0,0,.55.74.74,0,0,0,.725,1.178Z" transform="translate(14.319 34.049) rotate(131)"/>
      </g>
      <text id="Penguins" class="cls-16" transform="translate(222.312 127.343)"><tspan x="0" y="0">Penguins</tspan></text>
    </g>
  </g>
</svg>
